<svg width="128" height="128" viewBox="0 0 128 128" fill="none" xmlns="http://www.w3.org/2000/svg">
<path d="M43.3034 57.9793C47.223 57.9793 50.8074 60.1933 52.5603 63.6991L73.2569 105.092C75.8128 110.204 73.7403 116.422 68.6284 118.978C63.5166 121.534 57.299 119.461 54.7431 114.349L43.3034 91.4697L31.8637 114.349C29.3078 119.461 23.0902 121.534 17.9784 118.978C12.8666 116.422 10.794 110.204 13.3499 105.092L34.0465 63.6991L34.3952 63.0574C36.2475 59.925 39.6284 57.9793 43.3034 57.9793Z" fill="#FF88B3"/>
<path d="M84.6966 57.9793C88.6162 57.9793 92.2005 60.1933 93.9535 63.6991L114.65 105.092C117.206 110.204 115.133 116.422 110.022 118.978C104.91 121.534 98.6922 119.461 96.1363 114.349L84.6966 91.4697L73.2569 114.349C70.7009 119.461 64.4834 121.534 59.3716 118.978C54.2597 116.422 52.1872 110.204 54.7431 105.092L75.4397 63.6991L75.7884 63.0574C77.6406 59.925 81.0216 57.9793 84.6966 57.9793Z" fill="#F16DFF"/>
<path d="M64 52.4749C76.6464 52.4749 86.8983 42.2229 86.8983 29.5765C86.8983 16.9301 76.6464 6.67818 64 6.67818C51.3536 6.67818 41.1016 16.9301 41.1016 29.5765C41.1016 42.2229 51.3536 52.4749 64 52.4749Z" fill="#C993FF"/>
</svg>
